<?xml version="1.0" encoding="UTF-8" standalone="no"?>
<svg
   width="900"
   height="900"
   viewBox="0 0 900 900"
   version="1.1"
   xml:space="preserve"
   id="SVGRoot"
   xmlns="http://www.w3.org/2000/svg"
   xmlns:svg="http://www.w3.org/2000/svg"><defs
   id="defs2" />

<style
   type="text/css"
   id="style1">
g.prefab path {
  vector-effect:non-scaling-stroke;
  -inkscape-stroke:hairline;
  fill: none;
  fill-opacity: 1;
  stroke-opacity: 1;
  stroke: #00349c;
}
</style>
<g
   style="display:none;fill:#ffffff;stroke:#000000;stroke-width:2"
   class="prefab"
   id="g2">
  <path
   d="M 849.53146,50.000002 H 49.707105 L 849.53146,850.00003 Z M 451.68747,50 H 850 V 850 H 451.68747 Z M 50.175632,450 H 849.99997 V 850 H 50.175632 Z m -10e-7,-399.999998 H 849.99998 L 50.175631,850.00003 Z"
   id="path1" />
  <path
   d="M 450,50 A 400,400 0 0 0 50,450 400,400 0 0 0 450,850 400,400 0 0 0 850,450 400,400 0 0 0 450,50 Z m 0,100 A 300,300 0 0 1 750,450 300,300 0 0 1 450,750 300,300 0 0 1 150,450 300,300 0 0 1 450,150 Z m 0,100 A 200,200 0 0 0 250,450 200,200 0 0 0 450,650 200,200 0 0 0 650,450 200,200 0 0 0 450,250 Z m 0,100 A 100,100 0 0 1 550,450 100,100 0 0 1 450,550 100,100 0 0 1 350,450 100,100 0 0 1 450,350 Z"
   id="path2" />
</g>
<g
   id="layer1"
   style="display:inline"><ellipse
     style="display:inline;opacity:1;fill:#002f59;fill-opacity:1"
     id="path3"
     cx="450"
     cy="451.10431"
     rx="400.30676"
     ry="402.51535" /></g><g
   id="layer2"
   style="display:inline;fill:#84c4ff;fill-opacity:1"
   transform="matrix(0.5808732,0,0,0.59567623,47.4952,144.95262)"><ellipse
     style="opacity:1;fill:#84c4ff;fill-opacity:1;stroke-width:0.997019"
     id="path4"
     cx="511.38712"
     cy="252.36841"
     rx="184.41718"
     ry="154.60123" /><ellipse
     style="opacity:1;fill:#84c4ff;fill-opacity:1;stroke-width:0.997019"
     id="path4-8"
     cx="511.41782"
     cy="612.31323"
     rx="184.41718"
     ry="154.60123" /><rect
     style="opacity:1;fill:#84c4ff;fill-opacity:1;stroke-width:1"
     id="rect4"
     width="368.83432"
     height="366.62576"
     x="326.96997"
     y="244.63834" /><g
     id="layer2-2"
     style="fill:#84c4ff;fill-opacity:1"
     transform="translate(427.59835,105.38108)"><ellipse
       style="opacity:1;fill:#0061bb;fill-opacity:1;stroke-width:0.997019"
       id="path4-4"
       cx="452.45319"
       cy="300.56851"
       rx="184.41718"
       ry="154.60123" /><ellipse
       style="opacity:1;fill:#0061bb;fill-opacity:1;stroke-width:0.997019"
       id="path4-8-5"
       cx="452.48389"
       cy="660.51331"
       rx="184.41718"
       ry="154.60123" /><rect
       style="opacity:1;fill:#0061bb;fill-opacity:1;stroke-width:1"
       id="rect4-5"
       width="368.83432"
       height="366.62576"
       x="268.03607"
       y="292.83844" /></g></g><g
   id="layer4"
   transform="matrix(1.3887468,0,0,1.227991,-178.00322,-102.04379)"
   style="display:none"><ellipse
     style="opacity:0.964968;fill:#3b8edc;fill-opacity:1;stroke-width:0.78535"
     id="path6"
     cx="452.20856"
     cy="450"
     rx="215.88957"
     ry="244.60123" /></g><g
   id="layer3"
   style="display:none"><ellipse
     style="opacity:1;fill:#ff8080;fill-opacity:1;stroke-width:0.92024"
     id="path5"
     cx="449.99997"
     cy="457.17792"
     rx="101.04295"
     ry="102.69939" /></g></svg>
